<svg width="69" height="51" viewBox="0 0 69 51" fill="none" xmlns="http://www.w3.org/2000/svg">
<g filter="url(#filter0_f_903_97)">
<rect x="4" y="24" width="61" height="23" fill="black" fill-opacity="0.13"/>
</g>
<path d="M5.3787 46C29.4945 44.5888 42.7232 44.9014 66.3787 45.2277C65.7173 37.7332 65.3787 30.1572 65.3787 22.5106C65.3751 15.2735 67 0 67 0H66.5H5.3787C3.63861 18.6208 3.44481 28.7656 5.3787 46Z" fill="#FAEA9D"/>
<path d="M66.7275 0L66.7676 0.139648C66.4977 3.24604 66.2848 6.36647 66.127 9.5H5C5.21169 6.55502 5.47918 3.42051 5.79883 0H66.7275Z" fill="url(#paint0_linear_903_97)" fill-opacity="0.08"/>
<g filter="url(#filter1_g_903_97)">
<rect x="14" y="16" width="43" height="23" fill="#F4C1C1" fill-opacity="0.05"/>
</g>
<defs>
<filter id="filter0_f_903_97" x="0" y="20" width="69" height="31" filterUnits="userSpaceOnUse" color-interpolation-filters="sRGB">
<feFlood flood-opacity="0" result="BackgroundImageFix"/>
<feBlend mode="normal" in="SourceGraphic" in2="BackgroundImageFix" result="shape"/>
<feGaussianBlur stdDeviation="2" result="effect1_foregroundBlur_903_97"/>
</filter>
<filter id="filter1_g_903_97" x="6" y="8" width="59" height="39" filterUnits="userSpaceOnUse" color-interpolation-filters="sRGB">
<feFlood flood-opacity="0" result="BackgroundImageFix"/>
<feBlend mode="normal" in="SourceGraphic" in2="BackgroundImageFix" result="shape"/>
<feTurbulence type="fractalNoise" baseFrequency="0.99900001287460327 0.99900001287460327" numOctaves="3" seed="2005" />
<feDisplacementMap in="shape" scale="16" xChannelSelector="R" yChannelSelector="G" result="displacedImage" width="100%" height="100%" />
<feMerge result="effect1_texture_903_97">
<feMergeNode in="displacedImage"/>
</feMerge>
</filter>
<linearGradient id="paint0_linear_903_97" x1="-4.20117" y1="-3" x2="69.7988" y2="-3" gradientUnits="userSpaceOnUse">
<stop offset="0.230769" stop-color="white" stop-opacity="0"/>
<stop offset="0.538462" stop-opacity="0.2"/>
<stop offset="0.884615" stop-opacity="0"/>
</linearGradient>
</defs>
</svg>
